PathFileType	4	(X/Y/Z)	C:/Users/opensim2020/Desktop/walking_exp_matlab/subject02_walking10_straight_03.trc	
DataRate	CameraRate	NumFrames	NumMarkers	Units	OrigDataRate	OrigDataStartFrame	OrigNumFrames	
100.00	100.00	4	43	mm	100.00	2325	270	
Frame#	Time	LFHD			RFHD			LBHD			RBHD			C7			T10			CLAV			STRN			RBAK			LSHO			LUPA			LELB			LFRM			LWRA			LWRB			LFIN			RSHO			RUPA			RELB			RFRM			RWRA			RWRB			RFIN			LASI			RASI			LPSI			RPSI			LTHI			LKNE			LTIB			LANK			LHEE			LTOE			RTHI			RKNE			RTIB			RANK			RHEE			RTOE			*39			*40			*41			*42			
		X1	Y1	Z1	X2	Y2	Z2	X3	Y3	Z3	X4	Y4	Z4	X5	Y5	Z5	X6	Y6	Z6	X7	Y7	Z7	X8	Y8	Z8	X9	Y9	Z9	X10	Y10	Z10	X11	Y11	Z11	X12	Y12	Z12	X13	Y13	Z13	X14	Y14	Z14	X15	Y15	Z15	X16	Y16	Z16	X17	Y17	Z17	X18	Y18	Z18	X19	Y19	Z19	X20	Y20	Z20	X21	Y21	Z21	X22	Y22	Z22	X23	Y23	Z23	X24	Y24	Z24	X25	Y25	Z25	X26	Y26	Z26	X27	Y27	Z27	X28	Y28	Z28	X29	Y29	Z29	X30	Y30	Z30	X31	Y31	Z31	X32	Y32	Z32	X33	Y33	Z33	X34	Y34	Z34	X35	Y35	Z35	X36	Y36	Z36	X37	Y37	Z37	X38	Y38	Z38	X39	Y39	Z39	X40	Y40	Z40	X41	Y41	Z41	X42	Y42	Z42	X43	Y43	Z43	

136	1.350	1370.49133	-26.23757	1745.33875	1511.75269	1.52395	1733.20117	1387.82898	-148.88249	1659.81934	1530.03381	-133.88724	1644.46594	1452.69458	-182.04167	1524.54919	1447.06287	-230.46013	1247.72498	1445.26270	-43.25112	1459.39050	1459.17151	11.06351	1287.84766	1511.39563	-240.49866	1349.18213	1274.12231	-103.18573	1499.64978	1184.13586	-94.41180	1300.36548	1166.88745	-78.19269	1161.34473	1151.32605	-46.05920	1034.10986	1185.27185	26.79604	919.21973	1147.16492	-14.40783	915.20844	1142.66980	17.18536	856.99933	1640.84204	-109.41669	1493.68542	1722.94849	-130.31355	1299.38892	1739.81946	-106.63454	1153.83032	1757.60242	-61.21217	1042.02234	1734.86218	5.69109	924.42303	1767.66626	-39.72776	913.50165	1768.48645	6.85153	857.19012	1329.12964	20.14058	997.66400	1583.36035	-4.61729	979.31812	1389.58032	-197.77933	1031.80505	1503.27283	-212.65489	1026.62854	1276.29688	-33.88036	680.59045	1309.84338	-65.47621	478.22903	1313.64246	-119.62291	289.48352	1359.92761	-115.40556	68.16521	1410.59277	-152.05348	40.87253	1349.30542	41.36228	33.39760	1668.90125	-40.84126	678.01245	1661.51331	-2.10356	482.50830	1646.19177	-125.67304	348.36136	1601.65161	-228.04625	188.46617	1534.16016	-263.36548	148.16783	1664.17395	-145.97968	66.89163	1475.45459	-115.00210	1806.14819	-3356.80200	2845.89648	1034.07080						 
137	1.360	1371.06677	-17.79844	1745.83508	1512.28247	9.79334	1732.89355	1387.98645	-140.47238	1660.57434	1529.92578	-125.78242	1644.35754	1451.64392	-174.11456	1524.93677	1446.14355	-223.69530	1248.39990	1444.55188	-35.43001	1459.56311	1457.97815	18.46259	1287.83191	1509.93848	-233.19154	1349.73242	1273.40454	-94.62354	1500.64612	1182.76233	-83.07924	1302.06885	1164.73755	-64.99456	1163.21130	1149.40161	-29.84633	1036.38525	1184.10364	44.95805	923.25641	1145.50623	3.89501	918.23065	1141.67908	36.84333	860.66162	1639.78845	-102.14279	1493.14478	1721.73193	-124.57555	1299.14832	1739.01611	-101.63872	1153.60510	1756.83545	-57.09969	1041.29639	1734.71741	9.21943	923.45819	1767.09192	-36.51020	912.71149	1768.37231	9.84524	856.32715	1327.42981	25.74183	997.58911	1581.52600	2.98448	979.92285	1389.85889	-191.54156	1031.85071	1503.82813	-205.62721	1027.55554	1276.09326	-29.58155	680.03186	1309.93091	-62.56273	477.96469	1313.81238	-118.16975	289.64151	1360.10144	-115.30470	68.27796	1411.08752	-151.85620	41.10201	1349.24561	41.36032	33.30688	1668.41223	-30.20294	679.33282	1660.52148	12.10585	484.14072	1646.06177	-107.17489	345.20538	1602.14563	-204.10684	181.71275	1535.07129	-238.67491	139.95940	1663.83826	-116.58283	64.03651	1476.24219	-106.50315	1806.24268									 
138	1.370	1371.78259	-9.30600	1746.23291	1513.02441	18.11230	1732.42310	1387.86963	-132.31572	1661.17334	1529.63135	-117.96084	1644.11768	1450.78394	-166.13301	1525.34448	1445.32483	-216.46124	1248.86609	1443.84717	-27.65550	1459.62585	1456.73828	25.78470	1287.67407	1508.93420	-225.90382	1350.43164	1272.74573	-86.11386	1501.52185	1181.25842	-72.37525	1303.59680	1162.80798	-51.78951	1164.95349	1147.85925	-13.45985	1038.81555	1183.12219	63.05230	927.37585	1144.38818	22.55627	921.42157	1140.73145	56.48990	864.47522	1638.94678	-95.02579	1492.59680	1720.59607	-118.98376	1298.74255	1738.08191	-96.80927	1153.15515	1756.24487	-53.05601	1040.55554	1734.47937	12.63084	922.34167	1766.77234	-33.10420	911.96533	1768.18542	12.82274	855.18750	1325.78027	31.45113	997.29681	1579.81482	10.54012	980.33575	1390.14026	-185.23933	1031.92529	1504.31946	-198.64047	1028.53088	1276.37659	-25.45105	679.46680	1309.98450	-59.72261	477.74274	1314.01782	-116.82181	289.76630	1360.32629	-115.20734	68.35733	1411.28076	-151.75795	41.05863	1349.19519	41.41219	33.22332	1667.73389	-19.66313	680.51764	1659.26575	25.89031	485.43842	1646.02319	-88.58102	341.89661	1602.88269	-179.88112	174.85593	1536.15210	-213.47186	131.40654	1663.62280	-86.62606	61.46894	1477.37451	-97.77675	1806.42212	-3360.33154	2845.21655	1034.10974						 
139	1.380	1372.61719	-0.56993	1746.42346	1513.85352	26.50406	1731.81653	1388.21387	-123.86619	1661.92224	1529.97461	-109.77743	1644.00195	1449.89771	-158.20532	1525.56592	1444.70740	-209.25052	1249.25342	1443.27246	-19.88268	1459.60229	1455.64294	33.10816	1287.49060	1507.66602	-218.61530	1350.82288	1272.18042	-77.68608	1502.27112	1179.79004	-61.83570	1305.06812	1160.92749	-38.81380	1166.62976	1146.22620	1.77996	1041.42358	1182.21875	80.89957	931.50592	1143.25415	40.92340	924.64618	1139.87354	76.02846	868.44788	1638.34192	-87.70531	1492.02405	1719.42725	-113.34847	1298.30554	1736.96509	-92.13144	1152.48059	1755.97876	-48.80466	1039.94165	1734.45386	16.25214	921.14838	1766.24463	-29.95909	910.98285	1768.18799	15.74033	853.99976	1324.18555	37.28708	996.75653	1578.28540	17.98111	980.57312	1390.42102	-178.88338	1031.95581	1504.72815	-191.62003	1029.36389	1275.90356	-20.75231	679.05249	1310.09924	-57.00905	477.47552	1314.30408	-115.72213	289.98709	1360.49268	-115.14436	68.49664	1411.71521	-151.04114	40.57940	1349.14502	41.46101	33.20286	1667.23389	-9.54760	681.62915	1657.98352	39.22733	486.67804	1645.95789	-69.98145	338.53308	1603.80811	-155.32143	168.13174	1537.75757	-187.46065	122.35791	1663.48010	-56.31607	59.37323	1478.33997	-89.05985	1806.34949	-3356.88086	2845.79565	1034.00269						 
